<svg version="1.1" xmlns="http://www.w3.org/2000/svg" viewBox="0 0 741.8091747207125 747.997504954785" width="741.8091747207125" height="747.997504954785">
  <!-- svg-source:excalidraw -->
  
  <defs>
    <style class="style-fonts">
      @font-face {
        font-family: "Virgil";
        src: url("https://excalidraw.com/Virgil.woff2");
      }
      @font-face {
        font-family: "Cascadia";
        src: url("https://excalidraw.com/Cascadia.woff2");
      }
    </style>
  </defs>
  <rect x="0" y="0" width="741.8091747207125" height="747.997504954785" fill="#ffffff"></rect><g stroke-linecap="round" transform="translate(10 17.200016021728516) rotate(0 83.60002136230469 26.39999771118164)"><path d="M44.38 3.23 C54.68 1.16, 70.76 -0.09, 83.83 -0.01 C96.89 0.06, 111.38 1.75, 122.77 3.7 C134.16 5.65, 144.87 8.41, 152.16 11.7 C159.44 14.98, 164.98 19.35, 166.48 23.39 C167.99 27.44, 165.74 32.18, 161.2 35.97 C156.66 39.77, 149.01 43.48, 139.24 46.16 C129.47 48.85, 115.31 51.28, 102.57 52.09 C89.84 52.9, 75.38 51.9, 62.82 51.02 C50.26 50.14, 36.63 49.46, 27.2 46.82 C17.77 44.18, 10.81 39.25, 6.22 35.19 C1.64 31.14, -1.82 26.62, -0.32 22.49 C1.19 18.36, 6.31 13.93, 15.25 10.42 C24.2 6.91, 45.96 2.81, 53.38 1.46 C60.8 0.11, 59.3 1.98, 59.8 2.31 M95.66 -0.91 C107.58 -0.42, 120.17 3.56, 130.7 6.22 C141.22 8.88, 152.51 11.62, 158.79 15.03 C165.07 18.45, 168.66 22.71, 168.37 26.7 C168.09 30.69, 163.31 35.16, 157.08 38.95 C150.84 42.75, 141.51 47.1, 130.98 49.48 C120.45 51.86, 106.78 52.86, 93.89 53.23 C81.01 53.6, 66.14 53.27, 53.67 51.7 C41.19 50.13, 27.6 47.17, 19.04 43.81 C10.48 40.45, 5.25 35.63, 2.33 31.55 C-0.59 27.47, -1.78 23.41, 1.5 19.35 C4.77 15.28, 13.15 10.12, 21.99 7.15 C30.83 4.17, 42.21 2.75, 54.54 1.5 C66.86 0.26, 89.34 -0.05, 95.96 -0.31 C102.58 -0.58, 94.73 -0.81, 94.27 -0.08" stroke="#000000" stroke-width="1" fill="none"></path></g><g transform="translate(71.6859068154991 30.932396328024282) rotate(0 21.79997253417966 12.5)"><text x="21.799972534179688" y="0" font-family="Virgil, Segoe UI Emoji" font-size="20px" fill="#000000" text-anchor="middle" style="white-space: pre;" direction="ltr" dominant-baseline="text-before-edge">inicio</text></g><g stroke-linecap="round"><g transform="translate(181.18230909643944 42.0000114440918) rotate(0 47.355988657984255 -0.10119560435414243)"><path d="M0.46 0.72 C16.23 0.37, 79.7 -0.83, 95.46 -0.92 M-0.75 0.05 C14.83 0.33, 78.99 -0.12, 94.84 0.14" stroke="#000000" stroke-width="1" fill="none"></path></g><g transform="translate(181.18230909643944 42.0000114440918) rotate(0 47.355988657984255 -0.10119560435414243)"><path d="M67.81 11.33 C75.56 6.66, 87.94 1.54, 93.18 -0.32 M66.56 10.99 C75.02 7, 83.5 3.78, 95.65 -0.74" stroke="#000000" stroke-width="1" fill="none"></path></g><g transform="translate(181.18230909643944 42.0000114440918) rotate(0 47.355988657984255 -0.10119560435414243)"><path d="M67.87 -9.19 C75.8 -6.17, 88.15 -3.6, 93.18 -0.32 M66.63 -9.53 C74.86 -7.21, 83.33 -4.12, 95.65 -0.74" stroke="#000000" stroke-width="1" fill="none"></path></g></g><mask></mask><g stroke-linecap="round" transform="translate(277.03393862121493 13.200016021728516) rotate(0 85.20001220703125 29.60000228881836)"><path d="M14.8 0 M14.8 0 C63.21 -1.5, 113.34 0.71, 155.6 0 M14.8 0 C47.41 -1.92, 81.32 -1.9, 155.6 0 M155.6 0 C165.15 -1.37, 170.42 4.67, 170.4 14.8 M155.6 0 C164.32 1.11, 168.79 5.37, 170.4 14.8 M170.4 14.8 C171 25.29, 169.97 39.37, 170.4 44.4 M170.4 14.8 C170.36 23.17, 169.74 33.42, 170.4 44.4 M170.4 44.4 C169.12 55.04, 167.37 60.52, 155.6 59.2 M170.4 44.4 C169.39 53.14, 163.79 59.42, 155.6 59.2 M155.6 59.2 C117.39 59.83, 79.62 56.76, 14.8 59.2 M155.6 59.2 C111.23 57.89, 64.76 58.92, 14.8 59.2 M14.8 59.2 C6.16 57.31, -0.7 53.04, 0 44.4 M14.8 59.2 C4.59 60.98, 0.16 53.82, 0 44.4 M0 44.4 C0 36.7, 1.25 27.77, 0 14.8 M0 44.4 C-0.38 37.83, 0.28 30.5, 0 14.8 M0 14.8 C1.75 3.69, 3.15 -0.31, 14.8 0 M0 14.8 C-0.78 5.49, 4.6 -0.21, 14.8 0" stroke="#000000" stroke-width="1" fill="none"></path></g><g transform="translate(322.303973411254 30.300018310546875) rotate(0 39.92997741699219 12.5)"><text x="39.92997741699219" y="0" font-family="Virgil, Segoe UI Emoji" font-size="20px" fill="#000000" text-anchor="middle" style="white-space: pre;" direction="ltr" dominant-baseline="text-before-edge">avanzar</text></g><g stroke-linecap="round"><g transform="translate(453.40915030664996 37.99999237060547) rotate(0 48.255113626001446 0.03233262822031957)"><path d="M0.63 -1.07 C16.29 -0.85, 78.9 1.01, 94.61 1.13 M-0.5 0.98 C15.51 0.91, 81.27 -0.37, 97.01 -0.39" stroke="#000000" stroke-width="1" fill="none"></path></g><g transform="translate(453.40915030664996 37.99999237060547) rotate(0 48.255113626001446 0.03233262822031957)"><path d="M67.15 9.21 C80.78 5.72, 88.33 2.18, 95.63 1.11 M69.94 10.71 C77.26 7.66, 85.89 2.94, 97.81 -1.27" stroke="#000000" stroke-width="1" fill="none"></path></g><g transform="translate(453.40915030664996 37.99999237060547) rotate(0 48.255113626001446 0.03233262822031957)"><path d="M66.91 -11.31 C80.59 -7.54, 88.22 -3.81, 95.63 1.11 M69.7 -9.81 C76.99 -6.65, 85.69 -5.15, 97.81 -1.27" stroke="#000000" stroke-width="1" fill="none"></path></g></g><mask></mask><g stroke-linecap="round" transform="translate(554.2091380996187 10) rotate(0 85.20001220703125 29.60000228881836)"><path d="M14.8 0 M14.8 0 C66.34 0.11, 113.6 0.32, 155.6 0 M14.8 0 C46.89 0.01, 80.94 0.47, 155.6 0 M155.6 0 C165 1.36, 170.2 3.28, 170.4 14.8 M155.6 0 C167.31 -2.02, 172.69 3.51, 170.4 14.8 M170.4 14.8 C170.17 22.86, 168.65 33.03, 170.4 44.4 M170.4 14.8 C170.43 26.81, 170.11 38.16, 170.4 44.4 M170.4 44.4 C169 55.25, 166.93 59.73, 155.6 59.2 M170.4 44.4 C169.69 55.01, 167.25 60.86, 155.6 59.2 M155.6 59.2 C120.57 60.72, 84.69 57.38, 14.8 59.2 M155.6 59.2 C103.22 58.52, 49.25 59.73, 14.8 59.2 M14.8 59.2 C3.51 60.83, -0.63 52.49, 0 44.4 M14.8 59.2 C4.14 59.94, -1.92 52.93, 0 44.4 M0 44.4 C-1.15 38.07, 0.43 34, 0 14.8 M0 44.4 C0.56 33.58, -0.84 21.13, 0 14.8 M0 14.8 C1.3 4.6, 4.67 1.46, 14.8 0 M0 14.8 C0.92 3.94, 7.04 -0.21, 14.8 0" stroke="#000000" stroke-width="1" fill="none"></path></g><g transform="translate(596.0391933364351 27.10000228881836) rotate(0 43.369956970214844 12.5)"><text x="43.369956970214844" y="0" font-family="Virgil, Segoe UI Emoji" font-size="20px" fill="#000000" text-anchor="middle" style="white-space: pre;" direction="ltr" dominant-baseline="text-before-edge">izquierda</text></g><g stroke-linecap="round"><g transform="translate(619.0090648574312 74.39998626708984) rotate(0 3.654897142197001 41.1492180533707)"><path d="M1.08 -0.66 C2.34 13.04, 6.2 68.93, 7.12 82.96 M0.19 1.61 C1.4 14.89, 5.59 67.77, 6.55 81.13" stroke="#000000" stroke-width="1" fill="none"></path></g><g transform="translate(619.0090648574312 74.39998626708984) rotate(0 3.654897142197001 41.1492180533707)"><path d="M-6.92 54.99 C-1.47 61.19, 2.72 66.4, 5.77 82.21 M-5.88 53.1 C-2.25 63.85, 2.66 74.57, 7.27 80.93" stroke="#000000" stroke-width="1" fill="none"></path></g><g transform="translate(619.0090648574312 74.39998626708984) rotate(0 3.654897142197001 41.1492180533707)"><path d="M13.54 53.43 C13.61 60.23, 12.41 65.85, 5.77 82.21 M14.58 51.54 C10.84 62.67, 8.38 73.95, 7.27 80.93" stroke="#000000" stroke-width="1" fill="none"></path></g></g><mask></mask><g stroke-linecap="round" transform="translate(561.40915030665 166.39999389648438) rotate(0 85.20001220703125 29.60000228881836)"><path d="M14.8 0 M14.8 0 C70.67 -0.53, 126.55 -2.52, 155.6 0 M14.8 0 C51.32 -1.73, 88.28 -1.54, 155.6 0 M155.6 0 C163.85 0.2, 169.68 6.89, 170.4 14.8 M155.6 0 C167.13 -0.46, 171.14 6.38, 170.4 14.8 M170.4 14.8 C171.02 21.67, 171.66 33.3, 170.4 44.4 M170.4 14.8 C170.74 22.13, 171.15 28.73, 170.4 44.4 M170.4 44.4 C170.16 53.85, 164.25 59.99, 155.6 59.2 M170.4 44.4 C168.18 56.5, 165.83 57.67, 155.6 59.2 M155.6 59.2 C101.97 57.48, 46.12 58.88, 14.8 59.2 M155.6 59.2 C99.84 59.98, 45.6 61.14, 14.8 59.2 M14.8 59.2 C3.44 60.06, 0.57 52.47, 0 44.4 M14.8 59.2 C3.81 58.31, -1.27 56.19, 0 44.4 M0 44.4 C0.4 35.14, 1.34 23.54, 0 14.8 M0 44.4 C-0.26 34.32, -0.31 25.85, 0 14.8 M0 14.8 C0.45 3.41, 5.6 1.38, 14.8 0 M0 14.8 C-0.35 5.19, 5.19 1.73, 14.8 0" stroke="#000000" stroke-width="1" fill="none"></path></g><g transform="translate(606.679185096689 183.49999618530273) rotate(0 39.92997741699219 12.5)"><text x="39.92997741699219" y="0" font-family="Virgil, Segoe UI Emoji" font-size="20px" fill="#000000" text-anchor="middle" style="white-space: pre;" direction="ltr" dominant-baseline="text-before-edge">avanzar</text></g><g stroke-linecap="round"><g transform="translate(549.2818735200841 193.3600252589706) rotate(0 -54.479649457638175 3.058685210198604)"><path d="M0.89 0.77 C-17.33 1.56, -90.46 3.92, -108.87 4.83 M-0.1 0.14 C-18.52 1.05, -92.03 5.3, -109.85 5.98" stroke="#000000" stroke-width="1" fill="none"></path></g><g transform="translate(549.2818735200841 193.3600252589706) rotate(0 -54.479649457638175 3.058685210198604)"><path d="M-80.91 -5.78 C-92.75 -2.79, -99.73 1.79, -108.32 6.12 M-81.26 -6.02 C-92.19 -2.04, -104.05 3.34, -109.34 5.27" stroke="#000000" stroke-width="1" fill="none"></path></g><g transform="translate(549.2818735200841 193.3600252589706) rotate(0 -54.479649457638175 3.058685210198604)"><path d="M-79.9 14.72 C-92.1 10.8, -99.42 8.48, -108.32 6.12 M-80.24 14.48 C-91.41 10.58, -103.67 8.07, -109.34 5.27" stroke="#000000" stroke-width="1" fill="none"></path></g></g><mask></mask><g stroke-linecap="round" transform="translate(266.8818491060215 169.3500270843506) rotate(0 85.20001220703125 29.60000228881836)"><path d="M14.8 0 M14.8 0 C66.28 -1.18, 121.34 -0.52, 155.6 0 M14.8 0 C67.14 -1.6, 121.86 -1.54, 155.6 0 M155.6 0 C166.93 -1.47, 169.39 5.25, 170.4 14.8 M155.6 0 C166.64 -1.63, 171.84 6.52, 170.4 14.8 M170.4 14.8 C171.46 23.94, 171.99 28.06, 170.4 44.4 M170.4 14.8 C170.22 24.97, 170.75 35.82, 170.4 44.4 M170.4 44.4 C171.09 52.96, 166.8 59.26, 155.6 59.2 M170.4 44.4 C168.62 56.11, 167.1 57.05, 155.6 59.2 M155.6 59.2 C117.4 59.5, 80.85 56.99, 14.8 59.2 M155.6 59.2 C113.11 60.95, 72.76 60.24, 14.8 59.2 M14.8 59.2 C6.53 58.19, -1.75 53.77, 0 44.4 M14.8 59.2 C5.79 58.41, 1.74 52.67, 0 44.4 M0 44.4 C-0.2 36.58, -0.01 31.51, 0 14.8 M0 44.4 C1.01 36.94, 0.97 26.98, 0 14.8 M0 14.8 C-0.35 4.76, 3.12 1.03, 14.8 0 M0 14.8 C-1.79 6.03, 4.13 -0.26, 14.8 0" stroke="#000000" stroke-width="1" fill="none"></path></g><g transform="translate(314.5218942720371 186.45002937316895) rotate(0 37.559967041015625 12.5)"><text x="37.559967041015625" y="0" font-family="Virgil, Segoe UI Emoji" font-size="20px" fill="#000000" text-anchor="middle" style="white-space: pre;" direction="ltr" dominant-baseline="text-before-edge">derecha</text></g><g stroke-linecap="round" transform="translate(228.23388979308993 335.0000114440918) rotate(0 67.20004272460938 188.8000030517578)"><path d="M32 0 M32 0 C48.28 -1.74, 58.79 1.53, 102.4 0 M32 0 C52.12 -0.32, 72.48 0.22, 102.4 0 M102.4 0 C124.65 -1.33, 134.8 10.76, 134.4 32 M102.4 0 C125.67 0.35, 133.78 8.94, 134.4 32 M134.4 32 C133.1 96.5, 135.74 158.72, 134.4 345.6 M134.4 32 C133.33 137.94, 134.35 242.13, 134.4 345.6 M134.4 345.6 C135.83 367.87, 122.83 376.47, 102.4 377.6 M134.4 345.6 C134.76 366.25, 125.06 376.35, 102.4 377.6 M102.4 377.6 C83.69 376.56, 65.69 377.2, 32 377.6 M102.4 377.6 C88.28 377.86, 73.4 378.3, 32 377.6 M32 377.6 C10.99 376.03, -1.4 365.34, 0 345.6 M32 377.6 C8.91 376.07, 0.01 367.11, 0 345.6 M0 345.6 C2.41 242.42, 0.74 137.22, 0 32 M0 345.6 C0.69 260.37, 0.87 175.3, 0 32 M0 32 C1.47 11.54, 9.05 -1.14, 32 0 M0 32 C0.1 12.78, 12.15 -1.5, 32 0" stroke="#000000" stroke-width="1" fill="none"></path></g><g stroke-linecap="round"><g transform="translate(291.43396303527743 304.6000175476074) rotate(0 0.04551484063267708 216.2468813352286)"><path d="M-1.01 -0.9 C-0.67 71.31, 1 361.28, 1.1 433.4 M0.66 1.24 C1.02 73.08, 1.07 359.7, 0.73 431.59" stroke="#000000" stroke-width="1" fill="none"></path></g></g><mask></mask><g stroke-linecap="round"><g transform="translate(177.83398744933993 415.0000114440918) rotate(0 133.5912892695656 0.7743015387164007)"><path d="M-0.21 0.9 C44.54 0.96, 224.03 0.05, 268.96 -0.02 M-1.78 0.33 C42.78 0.62, 222.98 1.83, 268.1 1.51" stroke="#000000" stroke-width="1" fill="none"></path></g></g><mask></mask><g stroke-linecap="round"><g transform="translate(163.44264935164938 523.0257282159223) rotate(0 133.58877639645243 -0.34294865909032524)"><path d="M-0.07 -0.19 C44.89 -0.11, 223.81 -0.76, 268.75 -0.58 M-1.57 -1.34 C43.32 -1, 222.64 0.59, 267.77 0.66" stroke="#000000" stroke-width="1" fill="none"></path></g></g><mask></mask><g stroke-linecap="round"><g transform="translate(159.24263714461813 585.8257465264692) rotate(0 134.5646289519966 -0.19096737384808193)"><path d="M-0.58 0.79 C44.41 0.9, 224.81 0.58, 269.71 0.61 M1.32 0.16 C46.24 -0.08, 224.78 -1.02, 269.24 -1.19" stroke="#000000" stroke-width="1" fill="none"></path></g></g><mask></mask><g stroke-linecap="round"><g transform="translate(155.04268597274324 652.4257221124067) rotate(0 134.61407808923627 -0.06855036750323507)"><path d="M0.61 0.03 C45.44 0.04, 225.17 0.81, 269.76 0.98 M-0.53 -1 C44.16 -1.39, 224.72 -0.66, 269.31 -0.63" stroke="#000000" stroke-width="1" fill="none"></path></g></g><mask></mask><g stroke-linecap="round"><g transform="translate(165.84267376571188 475.825716008891) rotate(0 134.92536724909678 0.4728776795463432)"><path d="M0.98 -0.66 C45.94 -0.66, 225.33 0.97, 269.82 0.99 M0.03 1.61 C44.93 1.21, 224.36 -0.43, 269.4 -0.62" stroke="#000000" stroke-width="1" fill="none"></path></g></g><mask></mask><g stroke-linecap="round" transform="translate(232.23395082824618 331.0000114440918) rotate(0 26.399993896484375 40.40000915527344)"><path d="M3.51 3.05 C3.51 3.05, 3.51 3.05, 3.51 3.05 M3.51 3.05 C3.51 3.05, 3.51 3.05, 3.51 3.05 M1.94 10.96 C5.37 8.64, 8.48 3.57, 9.16 2.66 M1.94 10.96 C4.54 8.24, 6.45 6.24, 9.16 2.66 M1.68 17.36 C6.39 11.8, 9.4 8.08, 15.46 1.51 M1.68 17.36 C4.6 13.39, 8.87 8.05, 15.46 1.51 M1.42 23.76 C5.55 15.85, 11.23 10.14, 20.44 1.87 M1.42 23.76 C6.17 17.17, 11.73 12.17, 20.44 1.87 M1.81 29.4 C8.05 21.32, 14.5 15.76, 26.09 1.48 M1.81 29.4 C6.55 22.27, 12.15 17.23, 26.09 1.48 M1.55 35.8 C5.58 27.49, 14.24 21.26, 31.07 1.84 M1.55 35.8 C10.21 27.52, 18.22 18.42, 31.07 1.84 M1.94 41.44 C10.79 30.88, 18.93 20.84, 36.06 2.2 M1.94 41.44 C12.24 28.43, 24.75 17.06, 36.06 2.2 M1.68 47.84 C12.73 33.29, 23.47 19.12, 43.02 0.29 M1.68 47.84 C18.8 28.02, 34.03 10.22, 43.02 0.29 M2.08 53.48 C15 37.99, 24.67 24.77, 47.35 1.41 M2.08 53.48 C19.91 33.31, 37.76 11.62, 47.35 1.41 M1.82 59.88 C12.96 48.72, 20.76 38.73, 50.36 4.03 M1.82 59.88 C17.8 41.03, 34.93 23.53, 50.36 4.03 M2.21 65.52 C13.84 52.72, 24.09 40.62, 52.07 8.16 M2.21 65.52 C21.02 45.28, 39.62 22.79, 52.07 8.16 M1.95 71.92 C20.54 50.16, 35.86 31.98, 52.47 13.81 M1.95 71.92 C15.29 56.2, 29.6 41.65, 52.47 13.81 M3.66 76.05 C17.31 61.55, 29 45.36, 52.2 20.21 M3.66 76.05 C22.76 54.44, 42.25 32.25, 52.2 20.21 M6.02 79.43 C22.31 58.34, 40.54 38.59, 52.6 25.85 M6.02 79.43 C22.87 59.67, 37.98 42.47, 52.6 25.85 M10.35 80.55 C19.67 71.51, 26.52 60.29, 52.34 32.25 M10.35 80.55 C20.02 68.55, 30.74 58.16, 52.34 32.25 M15.34 80.91 C27.96 67.17, 39.87 54.49, 52.73 37.89 M15.34 80.91 C25.45 70.31, 36.16 59.14, 52.73 37.89 M20.98 80.51 C33.9 67.69, 46.87 52.45, 52.47 44.29 M20.98 80.51 C33.2 66.81, 42.84 54.76, 52.47 44.29 M26.62 80.12 C34.81 74.45, 39.12 65.95, 52.87 49.93 M26.62 80.12 C32.94 72.97, 38.86 67.15, 52.87 49.93 M31.61 80.48 C40.91 69.77, 47.37 60.97, 52.6 56.33 M31.61 80.48 C39.86 70.75, 47.83 61.15, 52.6 56.33 M37.25 80.08 C38.65 74.55, 41.95 72.84, 53 61.97 M37.25 80.08 C41.5 75.89, 44.6 71.86, 53 61.97 M42.24 80.44 C43.82 78.04, 46.18 75.69, 52.74 68.37 M42.24 80.44 C45.03 76.66, 48.26 73.14, 52.74 68.37" stroke="#a5d8ff" stroke-width="0.5" fill="none"></path><path d="M13.2 0 M13.2 0 C22.36 -0.54, 30.42 1.74, 39.6 0 M13.2 0 C21.78 0.26, 29.25 0.92, 39.6 0 M39.6 0 C48.69 -0.93, 51.1 5.5, 52.8 13.2 M39.6 0 C49.73 -1.25, 54.08 5.45, 52.8 13.2 M52.8 13.2 C51.72 27.18, 52.04 39.29, 52.8 67.6 M52.8 13.2 C51.78 32.66, 53.02 51.25, 52.8 67.6 M52.8 67.6 C53.17 76.6, 48.04 80.15, 39.6 80.8 M52.8 67.6 C52.84 78.49, 46.85 82.75, 39.6 80.8 M39.6 80.8 C31.57 81.62, 24.01 78.94, 13.2 80.8 M39.6 80.8 C30.89 81.6, 20.81 81.58, 13.2 80.8 M13.2 80.8 C4.95 79.87, -0.32 77.84, 0 67.6 M13.2 80.8 C3.24 78.56, -1.06 76.46, 0 67.6 M0 67.6 C-1.4 48.35, 1.49 32.31, 0 13.2 M0 67.6 C0.68 51.86, -0.21 37.6, 0 13.2 M0 13.2 C0.09 2.65, 5.18 0.89, 13.2 0 M0 13.2 C0.41 5.8, 6.21 -1.36, 13.2 0" stroke="#000000" stroke-width="1" fill="none"></path></g><g stroke-linecap="round" transform="translate(231.43396303527743 592.6000480651855) rotate(0 29.600006103515625 29.5999755859375)"><path d="M5.64 2.25 C5.64 2.25, 5.64 2.25, 5.64 2.25 M5.64 2.25 C5.64 2.25, 5.64 2.25, 5.64 2.25 M3.41 10.91 C5.08 6.73, 7.86 4.11, 12.59 0.34 M3.41 10.91 C5.58 7.62, 8.33 5.43, 12.59 0.34 M3.14 17.31 C6.56 12.48, 10.22 10.13, 16.92 1.46 M3.14 17.31 C5.47 13.02, 8.61 10.8, 16.92 1.46 M3.54 22.95 C5.3 17.35, 11.69 13.74, 21.91 1.82 M3.54 22.95 C9.17 18, 14.21 12.31, 21.91 1.82 M3.28 29.35 C9.49 21.81, 15.03 14.76, 27.55 1.43 M3.28 29.35 C10.41 20.04, 19.78 12.29, 27.55 1.43 M3.02 35.75 C10.73 25.03, 18.09 14.76, 32.54 1.79 M3.02 35.75 C15.42 21.4, 25.95 9.01, 32.54 1.79 M0.13 45.16 C10.94 32.05, 18.52 21.23, 37.53 2.15 M0.13 45.16 C14.92 28.57, 29.65 10.48, 37.53 2.15 M1.84 49.3 C11.5 39.8, 17.81 31.53, 43.17 1.75 M1.84 49.3 C15.4 33.23, 30.13 18.49, 43.17 1.75 M2.89 54.19 C13.62 42.35, 23.02 31.23, 48.81 1.36 M2.89 54.19 C20.19 35.58, 37.33 14.78, 48.81 1.36 M5.91 56.81 C23.34 36.34, 37.54 19.45, 53.14 2.47 M5.91 56.81 C18.39 42.08, 31.83 28.54, 53.14 2.47 M8.93 59.43 C22.23 45.36, 33.56 29.57, 56.16 5.1 M8.93 59.43 C27.52 38.41, 46.5 16.81, 56.16 5.1 M13.26 60.55 C29.3 39.74, 47.27 20.28, 59.18 7.72 M13.26 60.55 C29.88 41.05, 44.76 24.11, 59.18 7.72 M18.24 60.91 C27.57 51.87, 34.41 40.65, 60.23 12.61 M18.24 60.91 C27.92 48.91, 38.63 38.52, 60.23 12.61 M23.89 60.51 C36.72 46.55, 48.84 33.62, 61.94 16.74 M23.89 60.51 C34.18 49.72, 45.06 38.35, 61.94 16.74 M28.87 60.87 C42.31 47.48, 55.79 31.66, 61.68 23.14 M28.87 60.87 C41.57 46.64, 51.67 34.06, 61.68 23.14 M34.52 60.48 C42.87 54.63, 47.34 45.94, 61.42 29.54 M34.52 60.48 C40.99 53.16, 47.05 47.17, 61.42 29.54 M39.5 60.84 C49.34 49.54, 56.33 40.14, 61.81 35.18 M39.5 60.84 C48.27 50.51, 56.77 40.32, 61.81 35.18 M45.15 60.45 C46.68 54.76, 50.12 52.89, 61.55 41.58 M45.15 60.45 C49.54 56.1, 52.77 51.91, 61.55 41.58 M52.1 58.54 C53.38 56.59, 55.3 54.68, 60.63 48.73 M52.1 58.54 C54.36 55.46, 56.99 52.61, 60.63 48.73" stroke="#ffc9c9" stroke-width="0.5" fill="none"></path><path d="M14.8 0 M14.8 0 C24.94 -0.55, 33.97 1.73, 44.4 0 M14.8 0 C24.37 0.28, 32.83 0.93, 44.4 0 M44.4 0 C54.56 -0.93, 57.5 6.03, 59.2 14.8 M44.4 0 C55.6 -1.25, 60.48 5.98, 59.2 14.8 M59.2 14.8 C58.24 23.17, 58.56 29.67, 59.2 44.4 M59.2 14.8 C58.42 25.77, 59.66 35.86, 59.2 44.4 M59.2 44.4 C59.57 54.46, 53.91 58.55, 44.4 59.2 M59.2 44.4 C59.24 56.36, 52.72 61.15, 44.4 59.2 M44.4 59.2 C35.31 60, 26.69 57.32, 14.8 59.2 M44.4 59.2 C34.52 60.02, 23.26 60, 14.8 59.2 M14.8 59.2 C5.48 58.27, -0.32 55.7, 0 44.4 M14.8 59.2 C3.77 56.96, -1.06 54.33, 0 44.4 M0 44.4 C-1.6 33.18, 1.29 25.16, 0 14.8 M0 44.4 C0.7 35.64, -0.19 28.37, 0 14.8 M0 14.8 C0.09 3.19, 5.71 0.89, 14.8 0 M0 14.8 C0.41 6.33, 6.74 -1.36, 14.8 0" stroke="#000000" stroke-width="1" fill="none"></path></g><g stroke-linecap="round"><g transform="translate(261.83398744933993 377.1999931335449) rotate(0 -0.7319557832786927 23.448159254165347)"><path d="M0.34 0.16 C-0.09 8.05, -1.44 38.49, -1.82 46.51 M-0.94 -0.8 C-1.07 7.3, 0.13 39.8, 0.36 47.69" stroke="#000000" stroke-width="1" fill="none"></path></g><g transform="translate(261.83398744933993 377.1999931335449) rotate(0 -0.7319557832786927 23.448159254165347)"><path d="M-8.16 24.09 C-6.51 31.91, -0.34 39.82, 0.36 49.56 M-8.65 25.45 C-7.21 29.29, -4.38 35.08, 1.14 48.16" stroke="#000000" stroke-width="1" fill="none"></path></g><g transform="translate(261.83398744933993 377.1999931335449) rotate(0 -0.7319557832786927 23.448159254165347)"><path d="M7.98 23.56 C3.73 31.63, 4.02 39.73, 0.36 49.56 M7.48 24.93 C5.68 28.93, 5.27 34.83, 1.14 48.16" stroke="#000000" stroke-width="1" fill="none"></path></g></g><mask></mask><g stroke-linecap="round"><g transform="translate(267.52055983916784 428.4000663757324) rotate(318.25663551554817 -12.930056063563427 19.619549524739767)"><path d="M-0.44 -0.45 C-5.05 2.71, -26.8 12.76, -26.73 19.51 C-26.66 26.25, -4.52 36.44, -0.04 40.02 M1.53 -1.74 C-3.27 1.56, -27 13.83, -27.39 20.95 C-27.78 28.07, -5.47 37.44, -0.82 40.97" stroke="#000000" stroke-width="1" fill="none"></path></g><g transform="translate(267.52055983916784 428.4000663757324) rotate(318.25663551554817 -12.930056063563427 19.619549524739767)"><path d="M-18.43 38.78 C-11.6 39.12, -5.92 40.51, -0.48 40.88 M-16.96 38.84 C-11.48 39.51, -5.35 40.03, -1.31 40.24" stroke="#000000" stroke-width="1" fill="none"></path></g><g transform="translate(267.52055983916784 428.4000663757324) rotate(318.25663551554817 -12.930056063563427 19.619549524739767)"><path d="M-12.54 28.57 C-7.89 32.76, -4.44 38.01, -0.48 40.88 M-11.07 28.64 C-7.89 33.17, -4 37.56, -1.31 40.24" stroke="#000000" stroke-width="1" fill="none"></path></g></g><mask></mask><g stroke-linecap="round"><g transform="translate(279.92283819634997 446.22215563381485) rotate(0 21.63437224342954 1.3798356719315166)"><path d="M0.01 -0.55 C7.44 0.01, 37.44 2.85, 44.71 3.31 M-1.45 1.78 C5.87 2.02, 36.78 1.39, 44.14 1.67" stroke="#000000" stroke-width="1" fill="none"></path></g><g transform="translate(279.92283819634997 446.22215563381485) rotate(0 21.63437224342954 1.3798356719315166)"><path d="M22.49 10.3 C31.42 6.24, 36.04 5.74, 42.63 -0.01 M23.78 9.51 C28.99 8.05, 34.8 4.53, 44.56 1.31" stroke="#000000" stroke-width="1" fill="none"></path></g><g transform="translate(279.92283819634997 446.22215563381485) rotate(0 21.63437224342954 1.3798356719315166)"><path d="M22.55 -4.77 C31.45 -4.12, 36.06 0.1, 42.63 -0.01 M23.84 -5.56 C29.17 -3.15, 34.97 -2.81, 44.56 1.31" stroke="#000000" stroke-width="1" fill="none"></path></g></g><mask></mask><g stroke-linecap="round"><g transform="translate(312.8340296673798 455.19430549553755) rotate(66.2083673303212 20.572451540315512 -13.815409903146843)"><path d="M1 1.15 C5.68 -3.78, 20.45 -30.28, 27.13 -30.24 C33.8 -30.19, 39.12 -4.09, 41.07 1.4 M0.07 0.7 C5.21 -4.03, 22.63 -29.42, 29.43 -29.11 C36.24 -28.79, 39.39 -2.36, 40.89 2.61" stroke="#000000" stroke-width="1" fill="none"></path></g><g transform="translate(312.8340296673798 455.19430549553755) rotate(66.2083673303212 20.572451540315512 -13.815409903146843)"><path d="M33.74 -12.65 C32.93 -6.94, 35.67 -6.92, 42.4 2.16 M32.62 -10.87 C35.13 -7.53, 37.22 -2.12, 41.17 2.81" stroke="#000000" stroke-width="1" fill="none"></path></g><g transform="translate(312.8340296673798 455.19430549553755) rotate(66.2083673303212 20.572451540315512 -13.815409903146843)"><path d="M44.9 -14.95 C41.6 -8.64, 41.85 -8.1, 42.4 2.16 M43.78 -13.18 C42.69 -9.04, 41.16 -2.88, 41.17 2.81" stroke="#000000" stroke-width="1" fill="none"></path></g></g><mask></mask><g stroke-linecap="round" transform="translate(32.49000189640674 172.19706830000806) rotate(0 85.20001220703125 29.60000228881836)"><path d="M14.8 0 M14.8 0 C44.46 -0.08, 78.64 -1.2, 155.6 0 M14.8 0 C55.35 -0.58, 97.06 -0.64, 155.6 0 M155.6 0 C163.86 -1.6, 169.67 3.51, 170.4 14.8 M155.6 0 C165.66 -0.66, 169.74 6.39, 170.4 14.8 M170.4 14.8 C171.06 25.2, 171.03 35.35, 170.4 44.4 M170.4 14.8 C170.69 25.68, 170.38 38.18, 170.4 44.4 M170.4 44.4 C171.18 53.89, 164.23 57.65, 155.6 59.2 M170.4 44.4 C171.88 52.81, 166.74 60.13, 155.6 59.2 M155.6 59.2 C119.25 61.43, 86.1 60.17, 14.8 59.2 M155.6 59.2 C126.89 60.26, 97.94 60.68, 14.8 59.2 M14.8 59.2 C3.15 59.98, -0.6 52.79, 0 44.4 M14.8 59.2 C6.39 58.84, -1.85 53.37, 0 44.4 M0 44.4 C-1.06 36.43, -1.97 28.94, 0 14.8 M0 44.4 C-0.38 34.59, -0.69 25.92, 0 14.8 M0 14.8 C-1.08 3.12, 4.02 0.34, 14.8 0 M0 14.8 C1 7.13, 4.95 -1.03, 14.8 0" stroke="#000000" stroke-width="1" fill="none"></path></g><g transform="translate(77.7600366864458 189.2970705888264) rotate(0 39.92997741699219 12.5)"><text x="39.92997741699219" y="0" font-family="Virgil, Segoe UI Emoji" font-size="20px" fill="#000000" text-anchor="middle" style="white-space: pre;" direction="ltr" dominant-baseline="text-before-edge">avanzar</text></g><g stroke-linecap="round"><g transform="translate(262.4365969034542 200.68697357763958) rotate(0 -27.42557462286868 -0.20930033909996837)"><path d="M-0.98 1.12 C-10.2 1.08, -45.59 0.35, -54.8 0.1 M0.71 0.67 C-8.69 0.26, -46.45 -1.01, -55.56 -1.54" stroke="#000000" stroke-width="1" fill="none"></path></g><g transform="translate(262.4365969034542 200.68697357763958) rotate(0 -27.42557462286868 -0.20930033909996837)"><path d="M-27.39 -9.24 C-36.78 -9.02, -46.68 -5.96, -54.44 -1.99 M-29.39 -9.37 C-38.12 -7.16, -46.73 -3.99, -56.14 -1.17" stroke="#000000" stroke-width="1" fill="none"></path></g><g transform="translate(262.4365969034542 200.68697357763958) rotate(0 -27.42557462286868 -0.20930033909996837)"><path d="M-28.22 9.61 C-37.38 3.33, -47 -0.11, -54.44 -1.99 M-30.22 9.48 C-38.8 5.28, -47.14 2.05, -56.14 -1.17" stroke="#000000" stroke-width="1" fill="none"></path></g></g><mask></mask><g stroke-linecap="round"><g transform="translate(325.829618425392 464.8835656608112) rotate(0 0.6297040278315649 16.910010642511224)"><path d="M-0.33 0 C-0.43 5.59, -0.68 27.72, -0.55 33.42 M1.7 -1.04 C1.94 4.75, 1.89 29.32, 1.54 34.86" stroke="#000000" stroke-width="1" fill="none"></path></g><g transform="translate(325.829618425392 464.8835656608112) rotate(0 0.6297040278315649 16.910010642511224)"><path d="M-3.79 17.27 C-2.44 23.56, 0.29 28.47, 0.17 35.27 M-3 19.5 C-2.55 24.57, -0.15 29.52, 2.24 34.73" stroke="#000000" stroke-width="1" fill="none"></path></g><g transform="translate(325.829618425392 464.8835656608112) rotate(0 0.6297040278315649 16.910010642511224)"><path d="M7.7 17.56 C5.54 23.73, 4.77 28.55, 0.17 35.27 M8.49 19.8 C4.99 24.69, 3.44 29.54, 2.24 34.73" stroke="#000000" stroke-width="1" fill="none"></path></g></g><mask></mask><g stroke-linecap="round" transform="translate(27.9499027293715 266.0161439838703) rotate(0 85.20001220703125 29.600002288818374)"><path d="M14.8 0 M14.8 0 C42.1 2.95, 74.69 0.23, 155.6 0 M14.8 0 C46.59 -1.82, 79.48 -1.8, 155.6 0 M155.6 0 C167.29 0.44, 170.97 3.57, 170.4 14.8 M155.6 0 C165.44 2.01, 172.69 2.82, 170.4 14.8 M170.4 14.8 C169.84 19.75, 169.36 25.95, 170.4 44.4 M170.4 14.8 C171.47 23.77, 170.63 32.74, 170.4 44.4 M170.4 44.4 C170.07 52.28, 166.06 59.54, 155.6 59.2 M170.4 44.4 C168.16 53.77, 165.84 57.12, 155.6 59.2 M155.6 59.2 C116.84 57.82, 83.59 60.71, 14.8 59.2 M155.6 59.2 C110.69 59.26, 63.88 59.83, 14.8 59.2 M14.8 59.2 C6.36 60.79, 0.89 54.48, 0 44.4 M14.8 59.2 C3.84 59.49, 2.15 55.38, 0 44.4 M0 44.4 C-0.98 35.28, -0.25 23.1, 0 14.8 M0 44.4 C0.14 37.27, -0.77 29.3, 0 14.8 M0 14.8 C0.91 4.89, 6.81 1.39, 14.8 0 M0 14.8 C-1.03 2.83, 4.46 1.08, 14.8 0" stroke="#000000" stroke-width="1" fill="none"></path></g><g transform="translate(73.21993751941056 283.11614627268864) rotate(0 39.92997741699219 12.5)"><text x="39.92997741699219" y="0" font-family="Virgil, Segoe UI Emoji" font-size="20px" fill="#000000" text-anchor="middle" style="white-space: pre;" direction="ltr" dominant-baseline="text-before-edge">avanzar</text></g><g stroke-linecap="round"><g transform="translate(120.4362190213061 239.52140316934464) rotate(0 -0.13684530761901215 9.537483422419399)"><path d="M0.83 -0.07 C0.75 3.12, -0.17 15.91, -0.32 19.02 M-0.2 -1.15 C-0.42 2.2, -1.05 16.81, -1.1 20.23" stroke="#000000" stroke-width="1" fill="none"></path></g><g transform="translate(120.4362190213061 239.52140316934464) rotate(0 -0.13684530761901215 9.537483422419399)"><path d="M-4.23 11.15 C-3.73 14.28, -3.11 15.75, -1.93 20.93 M-4.03 11.23 C-3.09 13.47, -2.95 15.51, -1.3 20.39" stroke="#000000" stroke-width="1" fill="none"></path></g><g transform="translate(120.4362190213061 239.52140316934464) rotate(0 -0.13684530761901215 9.537483422419399)"><path d="M2.5 11.36 C0.88 14.47, -0.6 15.88, -1.93 20.93 M2.69 11.45 C2.1 13.66, 0.71 15.66, -1.3 20.39" stroke="#000000" stroke-width="1" fill="none"></path></g></g><mask></mask><g stroke-linecap="round"><g transform="translate(339.1421432719915 503.7117913429981) rotate(0 0.7320699213819353 29.730199594575794)"><path d="M-0.49 0.4 C-0.06 9.97, 1.67 48.61, 1.96 58.35 M1.45 -0.44 C1.78 9.25, 1.26 50.37, 1.04 59.9" stroke="#000000" stroke-width="1" fill="none"></path></g><g transform="translate(339.1421432719915 503.7117913429981) rotate(0 0.7320699213819353 29.730199594575794)"><path d="M-7.83 32.41 C-5.88 38.07, -2.74 44.23, 1.04 60.41 M-7.98 32.57 C-6.51 38.04, -5.7 43.76, 0.65 60.53" stroke="#000000" stroke-width="1" fill="none"></path></g><g transform="translate(339.1421432719915 503.7117913429981) rotate(0 0.7320699213819353 29.730199594575794)"><path d="M12.12 32.74 C9.14 38.24, 7.33 44.31, 1.04 60.41 M11.97 32.89 C9.34 38.18, 6.06 43.83, 0.65 60.53" stroke="#000000" stroke-width="1" fill="none"></path></g></g><mask></mask><g stroke-linecap="round" transform="translate(262.9716985040574 251.13488777531228) rotate(0 85.20001220703125 29.60000228881836)"><path d="M14.8 0 M14.8 0 C69.12 0.69, 121.99 -0.88, 155.6 0 M14.8 0 C43.99 1.12, 74.75 0.01, 155.6 0 M155.6 0 C165.18 -1.56, 170.89 4.66, 170.4 14.8 M155.6 0 C164.73 1.54, 169.48 4.35, 170.4 14.8 M170.4 14.8 C171.12 20.56, 172.07 30.47, 170.4 44.4 M170.4 14.8 C169.82 20.02, 170.07 26.45, 170.4 44.4 M170.4 44.4 C170.56 54.52, 163.61 60.45, 155.6 59.2 M170.4 44.4 C172.42 53.3, 165.1 60.13, 155.6 59.2 M155.6 59.2 C123.37 59.82, 91.14 58.59, 14.8 59.2 M155.6 59.2 C101.21 58.68, 47.17 59.58, 14.8 59.2 M14.8 59.2 C4.65 58.62, -0.17 52.75, 0 44.4 M14.8 59.2 C7.09 60.46, -0.33 53.5, 0 44.4 M0 44.4 C0.55 36.08, -0.35 27.04, 0 14.8 M0 44.4 C0.39 39.08, -0.1 32.11, 0 14.8 M0 14.8 C-0.29 4.37, 5.91 1.79, 14.8 0 M0 14.8 C-1.9 6.36, 2.95 1.99, 14.8 0" stroke="#000000" stroke-width="1" fill="none"></path></g><g transform="translate(308.24173329409643 268.23489006413064) rotate(0 39.92997741699219 12.5)"><text x="39.92997741699219" y="0" font-family="Virgil, Segoe UI Emoji" font-size="20px" fill="#000000" text-anchor="middle" style="white-space: pre;" direction="ltr" dominant-baseline="text-before-edge">avanzar</text></g><g stroke-linecap="round"><g transform="translate(208.55250442728857 289.9188359332703) rotate(0 24.96867077069186 -6.087133978850801)"><path d="M-0.46 0.53 C7.97 -1.78, 41.97 -10.39, 50.4 -12.7 M1.5 -0.24 C9.86 -1.84, 41.91 -9.16, 49.95 -11.17" stroke="#000000" stroke-width="1" fill="none"></path></g><g transform="translate(208.55250442728857 289.9188359332703) rotate(0 24.96867077069186 -6.087133978850801)"><path d="M29.51 4.44 C34.58 0.02, 39.66 -7.04, 50.82 -10.15 M28.03 2.47 C35.76 -1.81, 40.91 -5.76, 50.44 -10.99" stroke="#000000" stroke-width="1" fill="none"></path></g><g transform="translate(208.55250442728857 289.9188359332703) rotate(0 24.96867077069186 -6.087133978850801)"><path d="M25.47 -12.54 C31.87 -12.07, 38.1 -14.25, 50.82 -10.15 M24 -14.52 C33.03 -13.72, 39.39 -12.58, 50.44 -10.99" stroke="#000000" stroke-width="1" fill="none"></path></g></g><mask></mask><g stroke-linecap="round"><g transform="translate(311.8831246715433 540.1627787181123) rotate(0 -0.41494403363202537 27.162519327371456)"><path d="M-0.21 -0.4 C-0.34 8.58, -1.28 45.29, -1.16 54.69 M-1.77 -1.66 C-1.53 7.42, 0.65 46.69, 0.94 55.99" stroke="#000000" stroke-width="1" fill="none"></path></g><g transform="translate(311.8831246715433 540.1627787181123) rotate(0 -0.41494403363202537 27.162519327371456)"><path d="M-10.32 28.59 C-7.36 38.29, -2.31 42.49, 2.42 54.43 M-8.95 29.91 C-8.27 35.18, -4.85 40.45, 1.71 55.54" stroke="#000000" stroke-width="1" fill="none"></path></g><g transform="translate(311.8831246715433 540.1627787181123) rotate(0 -0.41494403363202537 27.162519327371456)"><path d="M8.52 27.74 C6.35 37.64, 6.26 42.07, 2.42 54.43 M9.89 29.06 C6.8 34.51, 6.44 39.94, 1.71 55.54" stroke="#000000" stroke-width="1" fill="none"></path></g></g><mask></mask><g stroke-linecap="round" transform="translate(492.4756702014399 249.15347977816955) rotate(0 85.20001220703125 29.600002288818345)"><path d="M14.8 0 M14.8 0 C60.01 -1.98, 110.5 0.33, 155.6 0 M14.8 0 C71.49 -1.23, 127.12 -1.56, 155.6 0 M155.6 0 C166.23 -0.13, 169.27 3.24, 170.4 14.8 M155.6 0 C163.33 1.34, 171.54 4.92, 170.4 14.8 M170.4 14.8 C172.55 22.78, 172.11 34.1, 170.4 44.4 M170.4 14.8 C171.28 22.44, 170.9 29.09, 170.4 44.4 M170.4 44.4 C172.36 52.92, 165.81 59.14, 155.6 59.2 M170.4 44.4 C168.91 53.19, 163.71 60.5, 155.6 59.2 M155.6 59.2 C116.55 60.75, 80.5 58.42, 14.8 59.2 M155.6 59.2 C113.06 60.21, 72.05 61.07, 14.8 59.2 M14.8 59.2 C4.61 60.14, 1.94 55.23, 0 44.4 M14.8 59.2 C6.29 57.2, 0.5 52.95, 0 44.4 M0 44.4 C1.54 34.49, -1.67 25.51, 0 14.8 M0 44.4 C0.24 34.75, -0.03 24.75, 0 14.8 M0 14.8 C-2 6.31, 4.92 -0.14, 14.8 0 M0 14.8 C-1.18 2.85, 2.94 -1.48, 14.8 0" stroke="#000000" stroke-width="1" fill="none"></path></g><g transform="translate(540.1157153674556 266.2534820669879) rotate(0 37.559967041015625 12.499999999999986)"><text x="37.559967041015625" y="0" font-family="Virgil, Segoe UI Emoji" font-size="20px" fill="#000000" text-anchor="middle" style="white-space: pre;" direction="ltr" dominant-baseline="text-before-edge">derecha</text></g><g stroke-linecap="round"><g transform="translate(443.17826162543554 276.0371584597032) rotate(0 25.363978671141183 -6.264600442893496)"><path d="M1.07 0.48 C9 -1.81, 40.18 -10.76, 48.4 -13.01 M0.17 -0.31 C8.4 -2.5, 42.24 -9.72, 50.56 -11.65" stroke="#000000" stroke-width="1" fill="none"></path></g><g transform="translate(443.17826162543554 276.0371584597032) rotate(0 25.363978671141183 -6.264600442893496)"><path d="M29.84 0.32 C36.25 -1.63, 44.11 -6.77, 49.85 -10.52 M28.41 1.57 C36.8 -3.29, 44.54 -8.61, 50.3 -10.84" stroke="#000000" stroke-width="1" fill="none"></path></g><g transform="translate(443.17826162543554 276.0371584597032) rotate(0 25.363978671141183 -6.264600442893496)"><path d="M26.06 -16.72 C33.96 -12.48, 43.2 -11.4, 49.85 -10.52 M24.62 -15.48 C34.4 -14.03, 43.53 -13.06, 50.3 -10.84" stroke="#000000" stroke-width="1" fill="none"></path></g></g><mask></mask><g stroke-linecap="round"><g transform="translate(318.2358317877947 638.5864307780271) rotate(99.16405999354609 17.904739367846105 -20.869273609632614)"><path d="M-0.32 0.36 C3.38 -6.59, 15.6 -41.72, 21.68 -41.64 C27.75 -41.56, 33.84 -6.55, 36.13 0.85 M1.71 -0.49 C5.81 -7.81, 18.16 -43.88, 23.83 -43.5 C29.49 -43.13, 33.74 -5.61, 35.71 1.77" stroke="#000000" stroke-width="1" fill="none"></path></g><g transform="translate(318.2358317877947 638.5864307780271) rotate(99.16405999354609 17.904739367846105 -20.869273609632614)"><path d="M24.81 -19.68 C27.99 -11.73, 28.87 -7.89, 37.56 1.9 M23.21 -18.53 C28.78 -10.42, 33.21 -3.75, 35.24 1.99" stroke="#000000" stroke-width="1" fill="none"></path></g><g transform="translate(318.2358317877947 638.5864307780271) rotate(99.16405999354609 17.904739367846105 -20.869273609632614)"><path d="M40.14 -22.47 C39.38 -13.85, 36.31 -9.29, 37.56 1.9 M38.54 -21.33 C38.28 -12.17, 36.86 -4.43, 35.24 1.99" stroke="#000000" stroke-width="1" fill="none"></path></g></g><mask></mask><g stroke-linecap="round"><g transform="translate(314.4188552054284 618.6116428515104) rotate(0 -26.92138280087414 0.44644535061235047)"><path d="M0.59 0.42 C-8.28 0.52, -44.45 0.2, -53.4 0.06 M-0.56 -0.4 C-9.59 -0.11, -45.55 1.18, -54.43 1.3" stroke="#000000" stroke-width="1" fill="none"></path></g><g transform="translate(314.4188552054284 618.6116428515104) rotate(0 -26.92138280087414 0.44644535061235047)"><path d="M-28.96 -8.72 C-37.76 -5.39, -45.69 -4.72, -54.51 0.54 M-29.83 -7.49 C-36.98 -6.8, -42.63 -2.82, -54.62 0.51" stroke="#000000" stroke-width="1" fill="none"></path></g><g transform="translate(314.4188552054284 618.6116428515104) rotate(0 -26.92138280087414 0.44644535061235047)"><path d="M-28.48 9.49 C-37.34 7.6, -45.41 3.05, -54.51 0.54 M-29.35 10.71 C-36.45 6.74, -42.22 6.05, -54.62 0.51" stroke="#000000" stroke-width="1" fill="none"></path></g></g><mask></mask><g stroke-linecap="round" transform="translate(502.7596921735287 351.4382187204147) rotate(0 85.20001220703125 29.60000228881836)"><path d="M14.8 0 M14.8 0 C68.51 0.5, 125.05 -2, 155.6 0 M14.8 0 C66.19 -1.17, 116.85 -0.54, 155.6 0 M155.6 0 C165.89 0.86, 168.68 3.2, 170.4 14.8 M155.6 0 C165.91 -2.16, 172.21 5.27, 170.4 14.8 M170.4 14.8 C171.37 27.12, 170.29 39, 170.4 44.4 M170.4 14.8 C170.47 21.33, 170.42 29.82, 170.4 44.4 M170.4 44.4 C169.38 54.93, 164.17 59.9, 155.6 59.2 M170.4 44.4 C169.97 52.78, 164.44 59.91, 155.6 59.2 M155.6 59.2 C118.03 59.86, 81.29 59.04, 14.8 59.2 M155.6 59.2 C103.28 60.56, 49.5 59.29, 14.8 59.2 M14.8 59.2 C3.7 59.24, 0.01 55.56, 0 44.4 M14.8 59.2 C5.04 58.7, 1.7 52.2, 0 44.4 M0 44.4 C0.79 35.74, -2.2 28.65, 0 14.8 M0 44.4 C0.28 33.59, 0.47 22.09, 0 14.8 M0 14.8 C1.9 6.8, 4.98 -0.73, 14.8 0 M0 14.8 C0.24 6.51, 5.62 0.39, 14.8 0" stroke="#000000" stroke-width="1" fill="none"></path></g><g transform="translate(548.0297269635678 368.53822100923304) rotate(0 39.92997741699219 12.5)"><text x="39.92997741699219" y="0" font-family="Virgil, Segoe UI Emoji" font-size="20px" fill="#000000" text-anchor="middle" style="white-space: pre;" direction="ltr" dominant-baseline="text-before-edge">avanzar</text></g><g stroke-linecap="round"><g transform="translate(582.5596162987041 309.35348435580624) rotate(0 -0.6147105796743517 15.152572878954942)"><path d="M0.89 -1.08 C0.71 4.2, -0.88 26.02, -0.98 31.38 M-0.11 0.97 C-0.47 5.94, -2.13 25.05, -2.12 29.73" stroke="#000000" stroke-width="1" fill="none"></path></g><g transform="translate(582.5596162987041 309.35348435580624) rotate(0 -0.6147105796743517 15.152572878954942)"><path d="M-7.99 14.71 C-4.14 20.7, -3.14 23.5, -3.63 29.91 M-6.56 15.75 C-4.74 21.5, -2.47 27.27, -2.1 29.45" stroke="#000000" stroke-width="1" fill="none"></path></g><g transform="translate(582.5596162987041 309.35348435580624) rotate(0 -0.6147105796743517 15.152572878954942)"><path d="M2.42 15.22 C3.1 21.13, 0.93 23.78, -3.63 29.91 M3.86 16.26 C1.6 21.82, -0.19 27.39, -2.1 29.45" stroke="#000000" stroke-width="1" fill="none"></path></g></g><mask></mask><g stroke-linecap="round"><g transform="translate(593.0294550503461 414.48610871436694) rotate(0 3.769883117373297 26.17840427949264)"><path d="M1.01 1.14 C2.1 9.44, 6.64 41.93, 7.45 50.11 M0.09 0.69 C1.03 9.17, 6.29 43.18, 7.1 51.66" stroke="#000000" stroke-width="1" fill="none"></path></g><g transform="translate(593.0294550503461 414.48610871436694) rotate(0 3.769883117373297 26.17840427949264)"><path d="M-2.59 31.11 C-0.01 36.86, 4.51 47.4, 7.69 52 M-4.92 29.57 C-1.01 35.6, 2.85 42.43, 7.28 52.27" stroke="#000000" stroke-width="1" fill="none"></path></g><g transform="translate(593.0294550503461 414.48610871436694) rotate(0 3.769883117373297 26.17840427949264)"><path d="M14.54 28.91 C10.67 35.63, 8.74 47.01, 7.69 52 M12.2 27.37 C10.9 34.22, 9.56 41.72, 7.28 52.27" stroke="#000000" stroke-width="1" fill="none"></path></g></g><mask></mask><g stroke-linecap="round" transform="translate(516.3892498387903 469.8408120259977) rotate(0 85.2000122070313 29.60000228881836)"><path d="M14.8 0 M14.8 0 C53.26 2.63, 88.92 1.63, 155.6 0 M14.8 0 C52.13 0.27, 90.8 -0.19, 155.6 0 M155.6 0 C167.36 0.67, 169.41 3.3, 170.4 14.8 M155.6 0 C166.17 -1.65, 170.73 6.29, 170.4 14.8 M170.4 14.8 C170.75 23.22, 168.91 34.36, 170.4 44.4 M170.4 14.8 C171.22 23.23, 169.45 29.66, 170.4 44.4 M170.4 44.4 C170.25 54.24, 164.06 59.58, 155.6 59.2 M170.4 44.4 C169.11 53.87, 167.68 59.95, 155.6 59.2 M155.6 59.2 C105.32 59.6, 55.69 57.66, 14.8 59.2 M155.6 59.2 C125.77 59.07, 95.23 58.81, 14.8 59.2 M14.8 59.2 C4.01 57.87, 1.98 56.09, 0 44.4 M14.8 59.2 C5.52 60.76, -2.12 52.46, 0 44.4 M0 44.4 C1.65 38.13, 1.59 29.5, 0 14.8 M0 44.4 C-0.61 36.74, 0.06 29.8, 0 14.8 M0 14.8 C1.82 5.9, 4.18 1.11, 14.8 0 M0 14.8 C0.36 6.57, 6.53 0.85, 14.8 0" stroke="#000000" stroke-width="1" fill="none"></path></g><g transform="translate(587.5592785253137 486.94081431481607) rotate(0 14.029983520507812 12.5)"><text x="14.029983520507812" y="0" font-family="Virgil, Segoe UI Emoji" font-size="20px" fill="#000000" text-anchor="middle" style="white-space: pre;" direction="ltr" dominant-baseline="text-before-edge">luz</text></g><g stroke-linecap="round" transform="translate(501.82400084940764 585.872342988135) rotate(0 83.60002136230469 26.39999771118164)"><path d="M115.82 1.39 C127.6 2.56, 140.09 6.16, 148.38 9.48 C156.66 12.81, 162.81 17.29, 165.53 21.35 C168.25 25.42, 168.29 30.11, 164.68 33.88 C161.06 37.65, 152.82 41.11, 143.85 43.98 C134.87 46.84, 122.91 49.49, 110.8 51.07 C98.7 52.65, 84.01 53.88, 71.22 53.46 C58.43 53.04, 44.48 51.02, 34.07 48.55 C23.66 46.09, 14.37 42.66, 8.74 38.66 C3.11 34.67, -0.14 28.89, 0.27 24.61 C0.69 20.33, 4.87 16.53, 11.22 13 C17.58 9.46, 27.5 5.64, 38.41 3.39 C49.32 1.15, 62.91 -0.48, 76.68 -0.49 C90.45 -0.51, 112.79 2.34, 121.04 3.3 C129.28 4.25, 126.69 4.91, 126.14 5.23 M57 1.58 C68.47 -0.04, 86.63 -0.25, 99.5 0.58 C112.36 1.41, 123.97 4.32, 134.18 6.58 C144.39 8.84, 155.07 10.51, 160.76 14.12 C166.44 17.73, 169.38 23.96, 168.31 28.22 C167.24 32.47, 161.08 36.29, 154.33 39.65 C147.58 43.02, 138.47 46, 127.81 48.41 C117.15 50.82, 103.42 53.97, 90.37 54.11 C77.32 54.24, 61.35 51.22, 49.51 49.22 C37.67 47.22, 27.55 45.03, 19.32 42.09 C11.09 39.15, 2.76 35.69, 0.13 31.58 C-2.5 27.48, -0.49 21.47, 3.55 17.47 C7.58 13.47, 15.22 10.33, 24.34 7.59 C33.45 4.84, 52.74 1.84, 58.23 0.99 C63.72 0.14, 56.91 2.06, 57.29 2.49" stroke="#000000" stroke-width="1" fill="none"></path></g><g transform="translate(573.5898942371724 599.6047232944308) rotate(0 11.719985961914062 12.5)"><text x="11.719985961914062" y="0" font-family="Virgil, Segoe UI Emoji" font-size="20px" fill="#000000" text-anchor="middle" style="white-space: pre;" direction="ltr" dominant-baseline="text-before-edge">fin</text></g><g stroke-linecap="round"><g transform="translate(599.0535315119364 533.0310637968944) rotate(0 -1.7844492233786013 23.735294823564544)"><path d="M0.33 -0.43 C-0.4 7.63, -3.25 40.85, -3.9 49.17 M-0.96 -1.7 C-1.33 5.92, -0.97 39.04, -1.57 47.24" stroke="#000000" stroke-width="1" fill="none"></path></g><g transform="translate(599.0535315119364 533.0310637968944) rotate(0 -1.7844492233786013 23.735294823564544)"><path d="M-10.07 22.84 C-5.97 31.2, -2.78 41.64, -0.91 49.17 M-10.22 24.3 C-6.78 31.96, -4.52 40.4, -2.16 46.82" stroke="#000000" stroke-width="1" fill="none"></path></g><g transform="translate(599.0535315119364 533.0310637968944) rotate(0 -1.7844492233786013 23.735294823564544)"><path d="M6.66 23.27 C5.11 31.52, 2.66 41.83, -0.91 49.17 M6.51 24.73 C4.13 32.28, 0.58 40.57, -2.16 46.82" stroke="#000000" stroke-width="1" fill="none"></path></g></g><mask></mask></svg>